<svg width="20" height="20" viewBox="0 0 20 20" fill="none" xmlns="http://www.w3.org/2000/svg">
<path d="M16.8743 10.1685C16.8774 10.056 16.8774 9.94354 16.8743 9.83104L18.0399 8.37479C18.101 8.29833 18.1434 8.20859 18.1634 8.11278C18.1835 8.01698 18.1808 7.9178 18.1556 7.82323C17.9641 7.10507 17.6783 6.41546 17.3056 5.77245C17.2567 5.68832 17.1889 5.61676 17.1075 5.56346C17.0261 5.51015 16.9334 5.47658 16.8368 5.46542L14.9837 5.25917C14.9066 5.17792 14.8285 5.09979 14.7493 5.02479L14.5306 3.16698C14.5193 3.07027 14.4856 2.97753 14.4322 2.89614C14.3787 2.81476 14.307 2.74699 14.2227 2.69823C13.5798 2.32577 12.8901 2.04045 12.172 1.84979C12.0774 1.82453 11.9782 1.82183 11.8824 1.84191C11.7866 1.86199 11.6969 1.9043 11.6204 1.96542L10.1681 3.12479C10.0556 3.12479 9.94305 3.12479 9.83055 3.12479L8.3743 1.96151C8.29784 1.90039 8.2081 1.85809 8.11229 1.838C8.01649 1.81792 7.91731 1.82062 7.82274 1.84589C7.10458 2.03731 6.41497 2.32314 5.77196 2.69589C5.68783 2.74473 5.61627 2.81255 5.56297 2.89392C5.50967 2.9753 5.47609 3.068 5.46493 3.16464L5.25868 5.02089C5.17743 5.09849 5.0993 5.17661 5.0243 5.25526L3.16649 5.46854C3.06978 5.47979 2.97704 5.51348 2.89566 5.56692C2.81427 5.62037 2.7465 5.69208 2.69774 5.77635C2.32536 6.41945 2.0398 7.10904 1.84852 7.82714C1.82336 7.92176 1.82079 8.02098 1.84101 8.11679C1.86123 8.21259 1.90368 8.30231 1.96493 8.3787L3.1243 9.83104C3.1243 9.94354 3.1243 10.056 3.1243 10.1685L1.96102 11.6248C1.8999 11.7013 1.8576 11.791 1.83752 11.8868C1.81743 11.9826 1.82013 12.0818 1.8454 12.1764C2.03682 12.8945 2.32265 13.5841 2.6954 14.2271C2.74425 14.3113 2.81206 14.3828 2.89344 14.4361C2.97481 14.4894 3.06751 14.523 3.16415 14.5342L5.01727 14.7404C5.09488 14.8217 5.173 14.8998 5.25165 14.9748L5.46805 16.8326C5.47931 16.9293 5.51299 17.0221 5.56644 17.1034C5.61988 17.1848 5.69159 17.2526 5.77587 17.3014C6.41896 17.6737 7.10855 17.9593 7.82665 18.1506C7.92128 18.1757 8.02049 18.1783 8.1163 18.1581C8.2121 18.1379 8.30182 18.0954 8.37821 18.0342L9.83055 16.8748C9.94305 16.8779 10.0556 16.8779 10.1681 16.8748L11.6243 18.0404C11.7008 18.1015 11.7905 18.1438 11.8863 18.1639C11.9821 18.184 12.0813 18.1813 12.1759 18.156C12.8941 17.965 13.5838 17.6791 14.2266 17.306C14.3108 17.2572 14.3823 17.1894 14.4356 17.108C14.4889 17.0266 14.5225 16.9339 14.5337 16.8373L14.7399 14.9842C14.8212 14.9071 14.8993 14.829 14.9743 14.7498L16.8321 14.531C16.9288 14.5198 17.0216 14.4861 17.103 14.4327C17.1843 14.3792 17.2521 14.3075 17.3009 14.2232C17.6733 13.5801 17.9588 12.8905 18.1501 12.1724C18.1752 12.0778 18.1778 11.9786 18.1576 11.8828C18.1374 11.787 18.0949 11.6973 18.0337 11.6209L16.8743 10.1685ZM9.9993 13.1248C9.38124 13.1248 8.77705 12.9415 8.26315 12.5981C7.74924 12.2548 7.3487 11.7667 7.11218 11.1957C6.87566 10.6247 6.81377 9.99633 6.93435 9.39014C7.05493 8.78394 7.35256 8.22712 7.7896 7.79008C8.22663 7.35304 8.78346 7.05542 9.38965 6.93484C9.99584 6.81426 10.6242 6.87614 11.1952 7.11267C11.7662 7.34919 12.2543 7.74973 12.5976 8.26364C12.941 8.77754 13.1243 9.38173 13.1243 9.99979C13.1243 10.8286 12.7951 11.6235 12.209 12.2095C11.623 12.7956 10.8281 13.1248 9.9993 13.1248Z" fill="#2564A7"/>
</svg>
