<svg width="20" height="20" viewBox="0 0 20 20" fill="none" xmlns="http://www.w3.org/2000/svg">
<path d="M10.939 14.0625C10.939 14.2479 10.884 14.4292 10.781 14.5833C10.678 14.7375 10.5315 14.8577 10.3602 14.9286C10.1889 14.9996 10.0004 15.0182 9.81857 14.982C9.63671 14.9458 9.46967 14.8565 9.33856 14.7254C9.20744 14.5943 9.11816 14.4273 9.08198 14.2454C9.04581 14.0635 9.06437 13.875 9.13533 13.7037C9.20629 13.5324 9.32645 13.386 9.48062 13.283C9.63479 13.18 9.81605 13.125 10.0015 13.125C10.2501 13.125 10.4886 13.2238 10.6644 13.3996C10.8402 13.5754 10.939 13.8139 10.939 14.0625ZM10.0015 5.625C8.27803 5.625 6.87647 6.88672 6.87647 8.4375V8.75C6.87647 8.91576 6.94232 9.07473 7.05953 9.19194C7.17674 9.30915 7.33571 9.375 7.50147 9.375C7.66723 9.375 7.8262 9.30915 7.94341 9.19194C8.06062 9.07473 8.12647 8.91576 8.12647 8.75V8.4375C8.12647 7.57812 8.96787 6.875 10.0015 6.875C11.0351 6.875 11.8765 7.57812 11.8765 8.4375C11.8765 9.29688 11.0351 10 10.0015 10C9.83571 10 9.67674 10.0658 9.55953 10.1831C9.44232 10.3003 9.37647 10.4592 9.37647 10.625V11.25C9.37647 11.4158 9.44232 11.5747 9.55953 11.6919C9.67674 11.8092 9.83571 11.875 10.0015 11.875C10.1672 11.875 10.3262 11.8092 10.4434 11.6919C10.5606 11.5747 10.6265 11.4158 10.6265 11.25V11.1938C12.0515 10.932 13.1265 9.79531 13.1265 8.4375C13.1265 6.88672 11.7249 5.625 10.0015 5.625ZM18.1265 10C18.1265 11.607 17.6499 13.1779 16.7572 14.514C15.8644 15.8502 14.5954 16.8916 13.1108 17.5065C11.6261 18.1215 9.99246 18.2824 8.41636 17.9689C6.84026 17.6554 5.39253 16.8815 4.25623 15.7452C3.11992 14.6089 2.34609 13.1612 2.03259 11.5851C1.71908 10.009 1.87999 8.37535 2.49495 6.8907C3.10991 5.40605 4.15131 4.1371 5.48746 3.24431C6.82361 2.35152 8.3945 1.875 10.0015 1.875C12.1557 1.87727 14.221 2.73403 15.7442 4.25727C17.2674 5.78051 18.1242 7.84581 18.1265 10ZM16.8765 10C16.8765 8.64025 16.4733 7.31104 15.7178 6.18045C14.9624 5.04987 13.8887 4.16868 12.6324 3.64833C11.3762 3.12798 9.99384 2.99183 8.66022 3.2571C7.3266 3.52237 6.1016 4.17716 5.14011 5.13864C4.17862 6.10013 3.52384 7.32513 3.25857 8.65875C2.9933 9.99237 3.12944 11.3747 3.6498 12.6309C4.17015 13.8872 5.05134 14.9609 6.18192 15.7164C7.31251 16.4718 8.64172 16.875 10.0015 16.875C11.8242 16.8729 13.5717 16.1479 14.8605 14.8591C16.1494 13.5702 16.8744 11.8227 16.8765 10Z" fill="#667185"/>
</svg>
