<svg width="142" height="40" viewBox="0 0 142 40" fill="none" xmlns="http://www.w3.org/2000/svg">
<path d="M56.1378 7.52948H37.836V12.1852H51.9146C51.1053 12.961 50.1022 13.9665 48.8698 15.1302C47.6025 16.2768 46.3002 17.5112 44.8924 18.7812C43.5196 20.0861 42.1475 21.3211 40.8446 22.4671C40.1407 23.1017 39.4718 23.7014 38.8733 24.2483C38.6091 24.4779 38.3804 24.6541 38.1695 24.9186C37.6943 25.4477 37.43 26.153 37.43 26.8938C37.43 28.5695 38.8028 29.9451 40.4748 29.9451H58.4781V25.4833H43.9243C44.6987 24.8487 45.6668 24.0022 46.8281 22.9084C47.9722 21.868 49.2039 20.757 50.5062 19.5577C51.8085 18.411 53.0225 17.2473 54.1844 16.1713C55.3285 15.0952 56.296 14.1611 57.0354 13.4202C57.7742 12.6793 58.2672 12.0796 58.5664 11.6033C58.8307 11.0742 58.9361 10.5629 58.9361 9.99819C58.9361 9.18672 58.7074 8.55206 58.1967 8.12852C57.6688 7.72278 57.0176 7.52882 56.1556 7.52882L56.1378 7.52948ZM96.5968 7.37181C93.4643 7.37181 91.0885 8.20043 89.4343 9.84117C87.78 11.4991 86.9707 14.0034 86.9707 17.3891V29.9108H91.3172V17.6359C91.3172 16.3131 91.5109 15.1665 91.88 14.2145C92.2669 13.2625 92.8481 12.5216 93.6396 12.0097C94.4318 11.4984 95.4349 11.2517 96.6311 11.2517C97.8273 11.2517 98.9186 11.5162 99.693 12.0275C100.467 12.5566 101.03 13.2975 101.382 14.2495C101.734 15.2021 101.91 16.3303 101.91 17.6359V29.9108H106.256V17.3891C106.256 13.95 105.412 11.4107 103.74 9.78773C102.068 8.16546 99.6752 7.35399 96.5777 7.35399L96.5955 7.37181H96.5968ZM112.135 29.9279V0H116.482V29.9286L112.135 29.9279ZM131.652 39.9993C129.928 39.9993 128.273 39.7704 126.672 39.2941C125.07 38.8178 123.61 38.0241 122.272 36.8604L123.997 33.3862C125.018 34.1977 126.126 34.8502 127.358 35.3265C128.59 35.8028 129.892 36.0495 131.265 36.0495C133.553 36.0495 135.189 35.432 136.21 34.1799C137.23 32.9277 137.723 31.3226 137.723 29.3124V27.161C137.213 27.8663 136.596 28.4482 135.84 28.9245C135.083 29.4008 134.273 29.7359 133.377 29.9471C132.479 30.1588 131.564 30.2644 130.631 30.2644C128.467 30.2644 126.742 29.8237 125.457 28.9238C124.173 28.0418 123.257 26.8074 122.712 25.2557C122.167 23.704 121.885 21.905 121.885 19.877V7.60205H126.284V18.8188C126.284 19.718 126.337 20.6178 126.46 21.5349C126.566 22.4341 126.812 23.2455 127.182 23.9686C127.552 24.6917 128.08 25.2735 128.783 25.6971C129.487 26.1378 130.438 26.3496 131.652 26.3496C133.165 26.3496 134.362 25.9795 135.242 25.2208C136.123 24.4621 136.738 23.4923 137.108 22.2579C137.477 21.0236 137.653 19.7008 137.653 18.2547V7.5849H142V28.8361C142 30.5817 141.788 32.1519 141.383 33.5274C140.978 34.9029 140.346 36.0845 139.482 37.0372C138.62 37.9898 137.547 38.73 136.281 39.2242C134.996 39.7183 133.465 39.965 131.652 39.965V39.9993ZM70.3746 21.2512C74.6683 21.2512 77.8541 20.6693 79.8247 19.5583C81.8308 18.4473 82.8339 16.7545 82.8339 14.5318C82.8339 12.3092 81.9712 10.5464 80.2643 9.29425C78.5751 8.00712 76.3225 7.35399 73.6118 7.35399C71.3243 7.35399 69.3181 7.86528 67.5578 8.8529C65.7981 9.8227 64.4075 11.1811 63.4045 12.9445C62.4014 14.673 61.9084 16.6832 61.9084 18.9408C61.9084 21.1984 62.4014 23.138 63.3689 24.8315C64.337 26.5244 65.692 27.8122 67.4167 28.782C69.1764 29.7168 71.1826 30.1753 73.4352 30.1753C74.4732 30.1753 75.5119 30.1047 76.6204 29.9286C77.694 29.7168 78.697 29.4701 79.6652 29.1C80.5977 28.7826 81.3899 28.3769 82.0233 27.989L80.1931 24.5498C78.4683 25.5552 76.5149 26.0487 74.3506 26.0487C72.3794 26.0487 70.743 25.6252 69.4407 24.726C68.1206 23.8268 67.364 22.6452 67.1531 21.1456C67.7337 21.1812 68.2972 21.2162 68.8779 21.2162C69.4934 21.2518 69.9521 21.2512 70.3746 21.2512ZM73.4721 11.1633C74.8271 11.1633 75.9007 11.4456 76.7627 12.0625C77.6248 12.6444 78.0123 13.4202 78.0123 14.4256C78.0123 16.6832 75.5488 17.8292 70.6033 17.8292H68.4561C67.9282 17.8292 67.3825 17.8292 66.9251 17.7935C66.96 15.8183 67.6112 14.2132 68.8258 12.9788C70.0404 11.7616 71.5885 11.1448 73.4721 11.1448V11.1633ZM28.5797 5.48564C28.5797 5.92634 28.492 6.34989 28.3332 6.73781C28.1572 7.10791 27.9463 7.44306 27.6642 7.72542C27.6464 7.74323 27.6287 7.74323 27.6287 7.76039L7.54941 28.3769H17.5096C18.0553 28.3769 18.6886 28.3591 19.1816 28.1473C20.2196 27.8122 20.6777 26.8246 20.4839 25.7664C20.3079 24.8671 19.8677 24.1612 19.3049 23.4738C19.2343 23.3854 18.2491 22.2395 18.3196 22.1689C18.3374 22.151 21.9977 18.2184 21.9977 18.2184L22.8426 19.3822C23.6697 20.5637 24.4791 21.7103 25.0953 23.0503C26.1511 25.3606 26.7146 28.3584 25.4821 30.7394C25.2007 31.2507 24.9542 31.6214 24.655 31.921C24.6201 31.9566 24.5667 31.9916 24.4085 32.1149C23.4233 32.9792 22.0155 33.4021 20.1676 33.4021L3.23791 33.2609C1.44266 33.2609 0 31.7969 0 30.0157C0 29.1514 0.334138 28.3927 0.87983 27.8109C0.91476 27.7581 0.968143 27.7053 1.02087 27.6697L20.8365 7.2999H10.8763C10.3662 7.2999 9.73218 7.33486 9.16935 7.54663C8.36004 7.829 7.91979 8.37525 7.84927 9.18672C7.83148 9.53967 7.84927 9.87482 7.91979 10.0688C8.04303 10.4039 8.13069 10.7391 8.27172 11.0386C8.44769 11.3559 8.62366 11.6383 8.81742 11.9206C9.18714 12.4847 9.5918 12.9967 9.96152 13.5607L10.067 13.7725L6.38882 17.4584L6.17792 17.1582C6.00196 16.9464 5.82599 16.6997 5.56171 16.3296C5.38575 16.0829 5.22758 15.8711 5.10433 15.6771L5.0694 15.6244C4.98109 15.501 4.92837 15.3954 4.85851 15.307C4.11971 14.2844 3.60895 13.4202 3.23923 12.5381C2.04239 10.016 1.90202 7.03535 2.88729 4.97237C3.15157 4.51386 3.41519 4.12594 3.7144 3.82577C3.78492 3.73736 3.89037 3.68458 3.99581 3.57903C4.94616 2.73259 6.31896 2.32686 8.21966 2.32686L25.378 2.2919H25.4307C26.733 2.2919 27.8771 3.10336 28.3694 4.23216C28.5105 4.60227 28.6159 5.008 28.6159 5.46651L28.5803 5.48432L28.5797 5.48564Z" fill="#1D2739"/>
</svg>
