<svg width="714" height="337" viewBox="0 0 714 337" fill="none" xmlns="http://www.w3.org/2000/svg">
<g clip-path="url(#clip0_729_12753)">
<rect x="1" y="1" width="712" height="335" rx="12" fill="#D7E6F6"/>
<g filter="url(#filter0_f_729_12753)">
<ellipse cx="187.345" cy="224.072" rx="422.945" ry="257.35" transform="rotate(26.5093 187.345 224.072)" fill="white"/>
</g>
<g filter="url(#filter1_f_729_12753)">
<ellipse cx="477.15" cy="338.24" rx="422.945" ry="370.405" transform="rotate(26.5093 477.15 338.24)" fill="white"/>
</g>
<rect x="107.5" y="70.7227" width="499" height="354.556" rx="9.5" fill="white"/>
<rect x="107.5" y="70.7227" width="499" height="354.556" rx="9.5" stroke="#E4E7EC"/>
<g clip-path="url(#clip1_729_12753)">
<path d="M523.491 164.266H449.985V182.965H506.529C503.278 186.081 499.25 190.119 494.3 194.793C489.21 199.398 483.98 204.356 478.326 209.456C472.812 214.698 467.301 219.658 462.068 224.26C459.241 226.809 456.555 229.218 454.151 231.414C453.09 232.336 452.171 233.044 451.324 234.106C449.416 236.231 448.354 239.064 448.354 242.04C448.354 248.77 453.868 254.294 460.583 254.294H532.89V236.375H474.437C477.547 233.826 481.436 230.426 486.1 226.033C490.695 221.854 495.642 217.392 500.872 212.575C506.103 207.97 510.978 203.296 515.645 198.974C520.24 194.653 524.126 190.901 527.096 187.925C530.063 184.95 532.043 182.541 533.245 180.628C534.306 178.503 534.73 176.449 534.73 174.181C534.73 170.922 533.811 168.373 531.76 166.672C529.639 165.043 527.024 164.264 523.562 164.264L523.491 164.266ZM685.987 163.633C673.406 163.633 663.864 166.961 657.22 173.551C650.576 180.209 647.325 190.267 647.325 203.866V254.157H664.782V204.857C664.782 199.544 665.56 194.939 667.043 191.115C668.596 187.292 670.931 184.316 674.11 182.26C677.292 180.207 681.32 179.216 686.124 179.216C690.929 179.216 695.312 180.278 698.422 182.332C701.532 184.457 703.793 187.432 705.206 191.256C706.62 195.082 707.327 199.613 707.327 204.857V254.157H724.783V203.866C724.783 190.053 721.39 179.854 714.677 173.336C707.962 166.82 698.351 163.561 685.91 163.561L685.982 163.633H685.987ZM748.394 254.225V134.025H765.853V254.228L748.394 254.225ZM826.781 294.675C819.854 294.675 813.21 293.756 806.778 291.843C800.346 289.93 794.48 286.742 789.107 282.068L796.034 268.115C800.134 271.374 804.586 273.995 809.533 275.908C814.48 277.821 819.711 278.812 825.224 278.812C834.414 278.812 840.984 276.332 845.087 271.303C849.184 266.273 851.164 259.827 851.164 251.753V243.113C849.116 245.945 846.638 248.282 843.599 250.195C840.561 252.108 837.308 253.454 833.708 254.302C830.1 255.153 826.426 255.577 822.681 255.577C813.988 255.577 807.061 253.807 801.899 250.193C796.74 246.65 793.064 241.692 790.875 235.46C788.683 229.228 787.553 222.003 787.553 213.858V164.558H805.221V209.607C805.221 213.219 805.433 216.833 805.928 220.516C806.352 224.128 807.341 227.387 808.826 230.291C810.311 233.195 812.432 235.532 815.258 237.233C818.085 239.003 821.902 239.854 826.781 239.854C832.858 239.854 837.662 238.367 841.199 235.32C844.735 232.273 847.207 228.378 848.692 223.42C850.174 218.463 850.881 213.15 850.881 207.342V164.489H868.34V249.84C868.34 256.851 867.491 263.157 865.863 268.682C864.238 274.207 861.697 278.952 858.229 282.778C854.767 286.604 850.458 289.577 845.37 291.562C840.209 293.547 834.062 294.538 826.781 294.538V294.675ZM580.67 219.377C597.915 219.377 610.71 217.04 618.625 212.578C626.682 208.116 630.711 201.317 630.711 192.39C630.711 183.463 627.246 176.383 620.39 171.354C613.606 166.185 604.559 163.561 593.672 163.561C584.484 163.561 576.427 165.615 569.357 169.581C562.29 173.476 556.704 178.932 552.676 186.015C548.647 192.957 546.667 201.03 546.667 210.098C546.667 219.165 548.647 226.955 552.533 233.757C556.421 240.556 561.863 245.728 568.79 249.623C575.858 253.378 583.915 255.219 592.962 255.219C597.131 255.219 601.303 254.936 605.755 254.228C610.067 253.378 614.096 252.387 617.984 250.9C621.729 249.626 624.911 247.996 627.455 246.438L620.104 232.625C613.177 236.663 605.332 238.645 596.639 238.645C588.722 238.645 582.15 236.944 576.919 233.333C571.617 229.721 568.579 224.976 567.732 218.953C570.064 219.096 572.327 219.236 574.659 219.236C577.131 219.379 578.973 219.377 580.67 219.377ZM593.111 178.861C598.553 178.861 602.865 179.995 606.327 182.472C609.789 184.809 611.345 187.925 611.345 191.963C611.345 201.03 601.451 205.633 581.589 205.633H572.965C570.845 205.633 568.653 205.633 566.816 205.49C566.956 197.557 569.571 191.11 574.45 186.153C579.328 181.264 585.546 178.786 593.111 178.786V178.861ZM412.808 156.057C412.808 157.827 412.456 159.529 411.818 161.087C411.112 162.573 410.265 163.919 409.132 165.053C409.06 165.125 408.989 165.125 408.989 165.194L328.344 247.996H368.348C370.539 247.996 373.083 247.924 375.063 247.074C379.232 245.728 381.071 241.761 380.293 237.511C379.587 233.9 377.818 231.065 375.558 228.304C375.275 227.949 371.317 223.346 371.601 223.063C371.672 222.991 386.373 207.196 386.373 207.196L389.767 211.87C393.089 216.616 396.339 221.221 398.814 226.603C403.054 235.882 405.318 247.922 400.368 257.485C399.237 259.538 398.248 261.027 397.046 262.23C396.906 262.373 396.691 262.514 396.056 263.009C392.099 266.48 386.445 268.179 379.023 268.179L311.028 267.612C303.818 267.612 298.023 261.732 298.023 254.578C298.023 251.107 299.365 248.06 301.557 245.723C301.697 245.511 301.912 245.299 302.124 245.156L381.709 163.344H341.706C339.657 163.344 337.111 163.485 334.85 164.335C331.6 165.469 329.832 167.663 329.549 170.922C329.477 172.34 329.549 173.686 329.832 174.465C330.327 175.811 330.679 177.157 331.245 178.36C331.952 179.634 332.659 180.768 333.437 181.902C334.922 184.168 336.547 186.224 338.032 188.49L338.456 189.34L323.683 204.144L322.836 202.938C322.129 202.088 321.422 201.097 320.361 199.61C319.654 198.619 319.019 197.769 318.524 196.99L318.384 196.778C318.029 196.282 317.817 195.858 317.537 195.503C314.57 191.396 312.518 187.925 311.033 184.383C306.226 174.253 305.663 162.282 309.62 153.996C310.681 152.154 311.74 150.596 312.942 149.391C313.225 149.036 313.648 148.824 314.072 148.4C317.889 145 323.402 143.371 331.036 143.371L399.95 143.23H400.161C405.392 143.23 409.987 146.489 411.964 151.023C412.53 152.51 412.954 154.139 412.954 155.981L412.811 156.052L412.808 156.057Z" fill="#F0F2F5"/>
</g>
<path d="M37.5617 329.577L76.6789 290.468C65.3411 276.856 59.6875 259.397 60.8942 241.723C62.1009 224.049 70.0749 207.521 83.1574 195.577C96.24 183.632 113.424 177.191 131.134 177.594C148.845 177.996 165.718 185.211 178.245 197.738C190.771 210.264 197.986 227.138 198.388 244.848C198.791 262.559 192.35 279.742 180.406 292.825C168.461 305.908 151.933 313.882 134.259 315.088C116.585 316.295 99.1265 310.641 85.5148 299.304L46.4054 338.421C45.8247 339.001 45.1353 339.462 44.3766 339.776C43.6179 340.091 42.8048 340.252 41.9835 340.252C41.1623 340.252 40.3491 340.091 39.5904 339.776C38.8317 339.462 38.1423 339.001 37.5617 338.421C36.981 337.84 36.5204 337.151 36.2061 336.392C35.8918 335.633 35.7301 334.82 35.7301 333.999C35.7301 333.178 35.8918 332.364 36.2061 331.606C36.5204 330.847 36.981 330.158 37.5617 329.577ZM185.734 246.499C185.734 235.374 182.435 224.498 176.254 215.248C170.073 205.998 161.288 198.788 151.01 194.531C140.731 190.273 129.421 189.159 118.51 191.33C107.598 193.5 97.5755 198.857 89.7088 206.724C81.8421 214.591 76.4848 224.614 74.3144 235.525C72.1439 246.436 73.2579 257.746 77.5153 268.025C81.7727 278.303 88.9825 287.088 98.2327 293.269C107.483 299.45 118.358 302.749 129.484 302.749C144.397 302.732 158.695 296.801 169.24 286.255C179.785 275.71 185.717 261.412 185.734 246.499Z" fill="#F0F2F5"/>
</g>
<rect x="0.75" y="0.75" width="712.5" height="335.5" rx="12.25" stroke="url(#paint0_linear_729_12753)" stroke-width="0.5"/>
<defs>
<filter id="filter0_f_729_12753" x="-502.281" y="-367.717" width="1379.26" height="1183.58" filterUnits="userSpaceOnUse" color-interpolation-filters="sRGB">
<feFlood flood-opacity="0" result="BackgroundImageFix"/>
<feBlend mode="normal" in="SourceGraphic" in2="BackgroundImageFix" result="shape"/>
<feGaussianBlur stdDeviation="147" result="effect1_foregroundBlur_729_12753"/>
</filter>
<filter id="filter1_f_729_12753" x="-229.969" y="-337.275" width="1414.23" height="1351.03" filterUnits="userSpaceOnUse" color-interpolation-filters="sRGB">
<feFlood flood-opacity="0" result="BackgroundImageFix"/>
<feBlend mode="normal" in="SourceGraphic" in2="BackgroundImageFix" result="shape"/>
<feGaussianBlur stdDeviation="147" result="effect1_foregroundBlur_729_12753"/>
</filter>
<linearGradient id="paint0_linear_729_12753" x1="756.5" y1="-21.5" x2="674.5" y2="258.5" gradientUnits="userSpaceOnUse">
<stop stop-color="#2F7DD0"/>
<stop offset="0.911992" stop-color="#2F7DD0" stop-opacity="0"/>
</linearGradient>
<clipPath id="clip0_729_12753">
<rect x="1" y="1" width="712" height="335" rx="12" fill="white"/>
</clipPath>
<clipPath id="clip1_729_12753">
<rect width="119" height="133" fill="white" transform="translate(298 137)"/>
</clipPath>
</defs>
</svg>
