<svg width="20" height="20" viewBox="0 0 20 20" fill="none" xmlns="http://www.w3.org/2000/svg">
<path d="M18.1265 16.25C18.1265 16.4158 18.0606 16.5747 17.9434 16.6919C17.8262 16.8092 17.6672 16.875 17.5015 16.875H2.50146C2.3357 16.875 2.17673 16.8092 2.05952 16.6919C1.94231 16.5747 1.87646 16.4158 1.87646 16.25C1.87646 16.0842 1.94231 15.9253 2.05952 15.8081C2.17673 15.6908 2.3357 15.625 2.50146 15.625H3.12646V10.625C3.12646 10.4592 3.19231 10.3003 3.30952 10.1831C3.42673 10.0658 3.5857 10 3.75147 10H5.62647C5.79223 10 5.9512 10.0658 6.06841 10.1831C6.18562 10.3003 6.25147 10.4592 6.25147 10.625V15.625H7.50147V6.875C7.50147 6.70924 7.56731 6.55027 7.68452 6.43306C7.80173 6.31585 7.96071 6.25 8.12647 6.25H10.6265C10.7922 6.25 10.9512 6.31585 11.0684 6.43306C11.1856 6.55027 11.2515 6.70924 11.2515 6.875V15.625H12.5015V3.125C12.5015 2.95924 12.5673 2.80027 12.6845 2.68306C12.8017 2.56585 12.9607 2.5 13.1265 2.5H16.2515C16.4172 2.5 16.5762 2.56585 16.6934 2.68306C16.8106 2.80027 16.8765 2.95924 16.8765 3.125V15.625H17.5015C17.6672 15.625 17.8262 15.6908 17.9434 15.8081C18.0606 15.9253 18.1265 16.0842 18.1265 16.25Z" fill="#2564A7"/>
</svg>
