<svg width="40" height="40" viewBox="0 0 40 40" fill="none" xmlns="http://www.w3.org/2000/svg">
<rect width="40" height="40" rx="20" fill="#F0F2F5"/>
<path d="M27.6009 22.9633C26.9228 21.7969 26.5626 20.1227 26.5626 18.125C26.5626 16.3845 25.8712 14.7153 24.6405 13.4846C23.4098 12.2539 21.7406 11.5625 20.0001 11.5625C18.2597 11.5625 16.5905 12.2539 15.3598 13.4846C14.129 14.7153 13.4376 16.3845 13.4376 18.125C13.4376 20.1234 13.0791 21.7969 12.4009 22.9633C12.2626 23.2012 12.1892 23.4713 12.1882 23.7465C12.1873 24.0218 12.2587 24.2924 12.3955 24.5312C12.5313 24.7702 12.7285 24.9687 12.9666 25.106C13.2048 25.2433 13.4752 25.3146 13.7501 25.3125H26.2501C26.5246 25.3142 26.7946 25.2427 27.0323 25.1054C27.27 24.9681 27.4668 24.7699 27.6025 24.5312C27.7398 24.2927 27.8119 24.0223 27.8117 23.7471C27.8114 23.4718 27.7387 23.2015 27.6009 22.9633ZM14.2705 23.4375C14.9619 22.0312 15.3126 20.2453 15.3126 18.125C15.3126 16.8818 15.8065 15.6895 16.6856 14.8104C17.5647 13.9314 18.7569 13.4375 20.0001 13.4375C21.2433 13.4375 22.4356 13.9314 23.3147 14.8104C24.1938 15.6895 24.6876 16.8818 24.6876 18.125C24.6876 20.2445 25.0376 22.0312 25.729 23.4375H14.2705ZM23.4376 27.5C23.4376 27.7486 23.3389 27.9871 23.1631 28.1629C22.9872 28.3387 22.7488 28.4375 22.5001 28.4375H17.5001C17.2515 28.4375 17.013 28.3387 16.8372 28.1629C16.6614 27.9871 16.5626 27.7486 16.5626 27.5C16.5626 27.2514 16.6614 27.0129 16.8372 26.8371C17.013 26.6613 17.2515 26.5625 17.5001 26.5625H22.5001C22.7488 26.5625 22.9872 26.6613 23.1631 26.8371C23.3389 27.0129 23.4376 27.2514 23.4376 27.5Z" fill="#667185"/>
<rect x="21.5" y="11.5" width="7" height="7" rx="3.5" fill="#F67E7D" stroke="white"/>
</svg>
