<svg width="14" height="7" viewBox="0 0 14 7" fill="none" xmlns="http://www.w3.org/2000/svg">
<path d="M6.60172 6.77304L0.976718 1.14804C0.924456 1.09578 0.882999 1.03373 0.854715 0.965448C0.826432 0.897164 0.811873 0.823978 0.811873 0.750069C0.811873 0.676159 0.826432 0.602973 0.854715 0.534689C0.882999 0.466406 0.924456 0.404362 0.976718 0.3521C1.02898 0.299838 1.09102 0.258381 1.15931 0.230097C1.22759 0.201813 1.30078 0.187256 1.37469 0.187256C1.4486 0.187256 1.52178 0.201813 1.59007 0.230097C1.65835 0.258381 1.72039 0.299838 1.77266 0.3521L6.99969 5.57983L12.2267 0.3521C12.3323 0.246552 12.4754 0.187256 12.6247 0.187256C12.774 0.187256 12.9171 0.246552 13.0227 0.3521C13.1282 0.457648 13.1875 0.600801 13.1875 0.750069C13.1875 0.899336 13.1282 1.04249 13.0227 1.14804L7.39766 6.77304C7.34542 6.82534 7.28338 6.86683 7.21509 6.89513C7.1468 6.92344 7.07361 6.93801 6.99969 6.93801C6.92577 6.93801 6.85257 6.92344 6.78428 6.89513C6.716 6.86683 6.65396 6.82534 6.60172 6.77304Z" fill="#667185"/>
</svg>
