<svg width="12" height="12" viewBox="0 0 12 12" fill="none" xmlns="http://www.w3.org/2000/svg">
<path d="M9.75 1.3125H8.8125V1.125C8.8125 0.975816 8.75324 0.832742 8.64775 0.727252C8.54226 0.621763 8.39918 0.5625 8.25 0.5625C8.10082 0.5625 7.95774 0.621763 7.85225 0.727252C7.74676 0.832742 7.6875 0.975816 7.6875 1.125V1.3125H4.3125V1.125C4.3125 0.975816 4.25324 0.832742 4.14775 0.727252C4.04226 0.621763 3.89918 0.5625 3.75 0.5625C3.60082 0.5625 3.45774 0.621763 3.35225 0.727252C3.24676 0.832742 3.1875 0.975816 3.1875 1.125V1.3125H2.25C2.00136 1.3125 1.7629 1.41127 1.58709 1.58709C1.41127 1.7629 1.3125 2.00136 1.3125 2.25V9.75C1.3125 9.99864 1.41127 10.2371 1.58709 10.4129C1.7629 10.5887 2.00136 10.6875 2.25 10.6875H9.75C9.99864 10.6875 10.2371 10.5887 10.4129 10.4129C10.5887 10.2371 10.6875 9.99864 10.6875 9.75V2.25C10.6875 2.00136 10.5887 1.7629 10.4129 1.58709C10.2371 1.41127 9.99864 1.3125 9.75 1.3125ZM3.1875 2.4375C3.1875 2.58668 3.24676 2.72976 3.35225 2.83525C3.45774 2.94074 3.60082 3 3.75 3C3.89918 3 4.04226 2.94074 4.14775 2.83525C4.25324 2.72976 4.3125 2.58668 4.3125 2.4375H7.6875C7.6875 2.58668 7.74676 2.72976 7.85225 2.83525C7.95774 2.94074 8.10082 3 8.25 3C8.39918 3 8.54226 2.94074 8.64775 2.83525C8.75324 2.72976 8.8125 2.58668 8.8125 2.4375H9.5625V3.5625H2.4375V2.4375H3.1875ZM2.4375 9.5625V4.6875H9.5625V9.5625H2.4375Z" fill="#667185"/>
</svg>
