<svg width="20" height="20" viewBox="0 0 20 20" fill="none" xmlns="http://www.w3.org/2000/svg">
<path d="M16.6923 7.05781C16.6342 6.9997 16.5653 6.9536 16.4894 6.92215C16.4136 6.89069 16.3322 6.87451 16.2501 6.87451C16.168 6.87451 16.0866 6.89069 16.0108 6.92215C15.9349 6.9536 15.866 6.9997 15.8079 7.05781L10.0001 12.8664L4.19229 7.05781C4.07502 6.94053 3.91596 6.87465 3.7501 6.87465C3.58425 6.87465 3.42519 6.94053 3.30792 7.05781C3.19064 7.17508 3.12476 7.33414 3.12476 7.5C3.12476 7.66585 3.19064 7.82491 3.30792 7.94218L9.55792 14.1922C9.61596 14.2503 9.68489 14.2964 9.76077 14.3278C9.83664 14.3593 9.91797 14.3755 10.0001 14.3755C10.0822 14.3755 10.1636 14.3593 10.2394 14.3278C10.3153 14.2964 10.3842 14.2503 10.4423 14.1922L16.6923 7.94218C16.7504 7.88414 16.7965 7.81521 16.828 7.73933C16.8594 7.66346 16.8756 7.58213 16.8756 7.5C16.8756 7.41786 16.8594 7.33653 16.828 7.26066C16.7965 7.18479 16.7504 7.11585 16.6923 7.05781Z" fill="#667185"/>
</svg>
