<svg width="36" height="36" viewBox="0 0 36 36" fill="none" xmlns="http://www.w3.org/2000/svg">
<rect x="0.5" y="0.5" width="35" height="35" rx="3.5" stroke="#F0F2F5"/>
<path d="M23.0326 21.9695C23.1734 22.1104 23.2526 22.3015 23.2526 22.5007C23.2526 22.7 23.1734 22.8911 23.0326 23.032C22.8917 23.1729 22.7006 23.252 22.5013 23.252C22.302 23.252 22.1109 23.1729 21.9701 23.032L18.0019 19.0626L14.0326 23.0307C13.8917 23.1716 13.7006 23.2508 13.5013 23.2508C13.302 23.2508 13.1109 23.1716 12.9701 23.0307C12.8292 22.8898 12.75 22.6987 12.75 22.4995C12.75 22.3002 12.8292 22.1091 12.9701 21.9682L16.9394 18.0001L12.9713 14.0307C12.8304 13.8898 12.7513 13.6987 12.7513 13.4995C12.7513 13.3002 12.8304 13.1091 12.9713 12.9682C13.1122 12.8273 13.3033 12.7482 13.5026 12.7482C13.7018 12.7482 13.8929 12.8273 14.0338 12.9682L18.0019 16.9376L21.9713 12.9676C22.1122 12.8267 22.3033 12.7476 22.5026 12.7476C22.7018 12.7476 22.8929 12.8267 23.0338 12.9676C23.1747 13.1085 23.2539 13.2996 23.2539 13.4989C23.2539 13.6981 23.1747 13.8892 23.0338 14.0301L19.0644 18.0001L23.0326 21.9695Z" fill="#133253"/>
</svg>
