<svg width="9" height="16" viewBox="0 0 9 16" fill="none" xmlns="http://www.w3.org/2000/svg">
<path d="M8.41569 8.66374L2.16569 14.9137C1.98957 15.0899 1.7507 15.1888 1.50163 15.1888C1.25255 15.1888 1.01368 15.0899 0.837563 14.9137C0.661443 14.7376 0.5625 14.4987 0.5625 14.2497C0.5625 14.0006 0.661443 13.7617 0.837563 13.5856L6.42428 8.00045L0.839126 2.41374C0.75192 2.32653 0.682745 2.223 0.635549 2.10906C0.588354 1.99512 0.564062 1.873 0.564062 1.74967C0.564062 1.62635 0.588354 1.50422 0.635549 1.39028C0.682745 1.27634 0.75192 1.17282 0.839126 1.08561C0.926332 0.998405 1.02986 0.929229 1.1438 0.882034C1.25774 0.834838 1.37986 0.810547 1.50319 0.810547C1.62652 0.810547 1.74864 0.834838 1.86258 0.882034C1.97652 0.929229 2.08005 0.998405 2.16725 1.08561L8.41725 7.33561C8.50455 7.42281 8.57377 7.52639 8.62096 7.6404C8.66814 7.75441 8.69235 7.87661 8.69221 8C8.69206 8.12339 8.66756 8.24553 8.62011 8.35943C8.57266 8.47333 8.50319 8.57674 8.41569 8.66374Z" fill="#667185"/>
</svg>
