<svg width="16" height="16" viewBox="0 0 16 16" fill="none" xmlns="http://www.w3.org/2000/svg">
<path d="M16.0001 8.50009C16.0001 8.699 15.9211 8.88976 15.7805 9.03042C15.6398 9.17107 15.4491 9.25009 15.2501 9.25009H14.7501V9.75009C14.7501 9.949 14.6711 10.1398 14.5305 10.2804C14.3898 10.4211 14.1991 10.5001 14.0001 10.5001C13.8012 10.5001 13.6105 10.4211 13.4698 10.2804C13.3292 10.1398 13.2501 9.949 13.2501 9.75009V9.25009H12.7501C12.5512 9.25009 12.3605 9.17107 12.2198 9.03042C12.0792 8.88976 12.0001 8.699 12.0001 8.50009C12.0001 8.30117 12.0792 8.11041 12.2198 7.96976C12.3605 7.8291 12.5512 7.75009 12.7501 7.75009H13.2501V7.25009C13.2501 7.05117 13.3292 6.86041 13.4698 6.71976C13.6105 6.5791 13.8012 6.50009 14.0001 6.50009C14.1991 6.50009 14.3898 6.5791 14.5305 6.71976C14.6711 6.86041 14.7501 7.05117 14.7501 7.25009V7.75009H15.2501C15.4491 7.75009 15.6398 7.8291 15.7805 7.96976C15.9211 8.11041 16.0001 8.30117 16.0001 8.50009ZM12.5745 12.0176C12.7025 12.1699 12.7647 12.3668 12.7475 12.5651C12.7302 12.7633 12.635 12.9465 12.4826 13.0745C12.3303 13.2024 12.1334 13.2646 11.9352 13.2474C11.737 13.2302 11.5537 13.1349 11.4258 12.9826C10.5701 11.9638 9.06264 10.7501 6.75014 10.7501C4.94452 10.7501 3.28389 11.5426 2.07452 12.9826C1.94655 13.1349 1.76331 13.2302 1.56511 13.2474C1.36691 13.2646 1.16998 13.2024 1.01764 13.0745C0.86531 12.9465 0.77005 12.7633 0.75282 12.5651C0.735591 12.3668 0.797802 12.1699 0.925769 12.0176C1.7406 11.0335 2.78595 10.2659 3.96889 9.78321C3.23329 9.20488 2.69626 8.41162 2.43255 7.51383C2.16884 6.61603 2.19156 5.65836 2.49754 4.77408C2.80353 3.8898 3.37757 3.1229 4.13977 2.5801C4.90197 2.0373 5.81442 1.74561 6.75014 1.74561C7.68587 1.74561 8.59832 2.0373 9.36052 2.5801C10.1227 3.1229 10.6968 3.8898 11.0027 4.77408C11.3087 5.65836 11.3315 6.61603 11.0677 7.51383C10.804 8.41162 10.267 9.20488 9.53139 9.78321C10.7144 10.2658 11.7598 11.0333 12.5745 12.0176ZM6.75014 9.25009C7.34349 9.25009 7.92351 9.07414 8.41685 8.74449C8.9102 8.41485 9.29472 7.94631 9.52178 7.39814C9.74885 6.84996 9.80826 6.24676 9.6925 5.66481C9.57674 5.08287 9.29102 4.54832 8.87146 4.12877C8.45191 3.70921 7.91736 3.42349 7.33541 3.30773C6.75347 3.19197 6.15027 3.25138 5.60209 3.47845C5.05392 3.70551 4.58538 4.09003 4.25574 4.58337C3.92609 5.07672 3.75014 5.65674 3.75014 6.25009C3.75097 7.04548 4.06731 7.80806 4.62974 8.37049C5.19217 8.93292 5.95475 9.24926 6.75014 9.25009Z" fill="#2F7DD0"/>
</svg>
