<svg width="20" height="20" viewBox="0 0 20 20" fill="none" xmlns="http://www.w3.org/2000/svg">
<path d="M9.16172 12.3374C9.99938 11.7798 10.6353 10.9674 10.9756 10.0203C11.3158 9.07325 11.3422 8.04185 11.0509 7.07862C10.7596 6.1154 10.166 5.27149 9.35799 4.67169C8.54997 4.07189 7.57037 3.74805 6.56407 3.74805C5.55776 3.74805 4.57816 4.07189 3.77014 4.67169C2.96211 5.27149 2.36856 6.1154 2.07726 7.07862C1.78596 8.04185 1.81236 9.07325 2.15258 10.0203C2.49279 10.9674 3.12875 11.7798 3.96641 12.3374C2.45117 12.8959 1.15712 13.9293 0.277346 15.2835C0.231108 15.3523 0.198991 15.4295 0.182862 15.5107C0.166734 15.592 0.166914 15.6756 0.183394 15.7568C0.199873 15.838 0.232323 15.915 0.278857 15.9836C0.325391 16.0521 0.385081 16.1107 0.454457 16.1559C0.523833 16.2012 0.601512 16.2322 0.682977 16.2472C0.764443 16.2621 0.848071 16.2607 0.928999 16.2431C1.00993 16.2255 1.08654 16.1919 1.15439 16.1444C1.22224 16.0969 1.27997 16.0364 1.32422 15.9664C1.89171 15.0935 2.66825 14.3763 3.58331 13.8798C4.49838 13.3833 5.52297 13.1232 6.56407 13.1232C7.60516 13.1232 8.62976 13.3833 9.54482 13.8798C10.4599 14.3763 11.2364 15.0935 11.8039 15.9664C11.8956 16.1026 12.0372 16.1973 12.1981 16.23C12.359 16.2626 12.5264 16.2307 12.6639 16.141C12.8014 16.0512 12.8982 15.911 12.9331 15.7506C12.9681 15.5901 12.9385 15.4224 12.8508 15.2835C11.971 13.9293 10.677 12.8959 9.16172 12.3374ZM3.12656 8.43745C3.12656 7.75758 3.32817 7.09297 3.70589 6.52768C4.08361 5.96238 4.62047 5.52179 5.24859 5.26161C5.87671 5.00144 6.56788 4.93336 7.23469 5.066C7.9015 5.19864 8.514 5.52603 8.99475 6.00677C9.47549 6.48751 9.80288 7.10002 9.93551 7.76683C10.0682 8.43364 10.0001 9.1248 9.7399 9.75292C9.47972 10.381 9.03913 10.9179 8.47384 11.2956C7.90854 11.6733 7.24394 11.8749 6.56407 11.8749C5.6527 11.8739 4.77896 11.5114 4.13453 10.867C3.49009 10.2226 3.1276 9.34881 3.12656 8.43745ZM19.5438 16.1484C19.4049 16.2389 19.2358 16.2706 19.0736 16.2365C18.9115 16.2023 18.7695 16.1052 18.6789 15.9664C18.1121 15.093 17.3357 14.3755 16.4204 13.8791C15.5052 13.3828 14.4802 13.1236 13.4391 13.1249C13.2733 13.1249 13.1143 13.0591 12.9971 12.9419C12.8799 12.8247 12.8141 12.6657 12.8141 12.4999C12.8141 12.3342 12.8799 12.1752 12.9971 12.058C13.1143 11.9408 13.2733 11.8749 13.4391 11.8749C13.9453 11.8745 14.4452 11.7622 14.903 11.5461C15.3608 11.3301 15.7652 11.0156 16.0874 10.6251C16.4095 10.2346 16.6415 9.77779 16.7666 9.28727C16.8918 8.79676 16.907 8.28466 16.8113 7.78756C16.7156 7.29047 16.5113 6.82065 16.213 6.41166C15.9147 6.00268 15.5297 5.66464 15.0856 5.42169C14.6414 5.17874 14.1491 5.03688 13.6438 5.00625C13.1385 4.97562 12.6327 5.05696 12.1625 5.24448C12.0858 5.27762 12.0033 5.29506 11.9198 5.29577C11.8363 5.29647 11.7534 5.28043 11.6762 5.24859C11.599 5.21675 11.529 5.16975 11.4702 5.11038C11.4115 5.05101 11.3652 4.98046 11.3342 4.90291C11.3032 4.82536 11.288 4.74238 11.2896 4.65887C11.2912 4.57536 11.3095 4.49302 11.3435 4.41671C11.3774 4.3404 11.4263 4.27167 11.4873 4.21458C11.5483 4.15749 11.6201 4.1132 11.6984 4.08432C12.7746 3.65514 13.9715 3.6397 15.0584 4.04097C16.1453 4.44224 17.045 5.23179 17.5841 6.25731C18.1231 7.28282 18.2633 8.47164 17.9776 9.59442C17.6918 10.7172 17.0004 11.6944 16.0367 12.3374C17.552 12.8959 18.846 13.9293 19.7258 15.2835C19.8163 15.4224 19.848 15.5915 19.8139 15.7537C19.7797 15.9158 19.6826 16.0578 19.5438 16.1484Z" fill="#667185"/>
</svg>
