<svg width="40" height="40" viewBox="0 0 40 40" fill="none" xmlns="http://www.w3.org/2000/svg">
<rect x="0.5" y="0.5" width="39" height="39" rx="19.5" stroke="#D7E6F6"/>
<path opacity="0.2" d="M20.625 18.4375C20.625 19.241 20.3867 20.0264 19.9403 20.6945C19.494 21.3626 18.8595 21.8833 18.1172 22.1908C17.3748 22.4982 16.558 22.5787 15.7699 22.4219C14.9819 22.2652 14.258 21.8783 13.6899 21.3101C13.1217 20.742 12.7348 20.0181 12.5781 19.2301C12.4213 18.442 12.5018 17.6252 12.8092 16.8828C13.1167 16.1405 13.6374 15.506 14.3055 15.0597C14.9736 14.6133 15.759 14.375 16.5625 14.375C17.6399 14.375 18.6733 14.803 19.4351 15.5649C20.197 16.3267 20.625 17.3601 20.625 18.4375Z" fill="#5897DA"/>
<path d="M19.1603 22.3374C19.9979 21.7798 20.6339 20.9674 20.9741 20.0203C21.3143 19.0732 21.3407 18.0418 21.0494 17.0786C20.7581 16.1154 20.1646 15.2715 19.3565 14.6717C18.5485 14.0719 17.5689 13.748 16.5626 13.748C15.5563 13.748 14.5767 14.0719 13.7687 14.6717C12.9606 15.2715 12.3671 16.1154 12.0758 17.0786C11.7845 18.0418 11.8109 19.0732 12.1511 20.0203C12.4913 20.9674 13.1273 21.7798 13.9649 22.3374C12.4497 22.8959 11.1557 23.9293 10.2759 25.2835C10.2296 25.3523 10.1975 25.4295 10.1814 25.5107C10.1653 25.592 10.1654 25.6756 10.1819 25.7568C10.1984 25.838 10.2309 25.915 10.2774 25.9836C10.3239 26.0521 10.3836 26.1107 10.453 26.1559C10.5224 26.2012 10.6 26.2322 10.6815 26.2472C10.763 26.2621 10.8466 26.2607 10.9275 26.2431C11.0085 26.2255 11.0851 26.1919 11.1529 26.1444C11.2208 26.0969 11.2785 26.0364 11.3228 25.9664C11.8902 25.0935 12.6668 24.3763 13.5818 23.8798C14.4969 23.3833 15.5215 23.1232 16.5626 23.1232C17.6037 23.1232 18.6283 23.3833 19.5434 23.8798C20.4584 24.3763 21.235 25.0935 21.8024 25.9664C21.8941 26.1026 22.0357 26.1973 22.1966 26.23C22.3576 26.2626 22.5249 26.2307 22.6624 26.141C22.8 26.0512 22.8967 25.911 22.9317 25.7506C22.9666 25.5901 22.9371 25.4224 22.8493 25.2835C21.9696 23.9293 20.6755 22.8959 19.1603 22.3374ZM13.1251 18.4374C13.1251 17.7576 13.3267 17.093 13.7044 16.5277C14.0821 15.9624 14.619 15.5218 15.2471 15.2616C15.8752 15.0014 16.5664 14.9334 17.2332 15.066C17.9 15.1986 18.5125 15.526 18.9933 16.0068C19.474 16.4875 19.8014 17.1 19.934 17.7668C20.0667 18.4336 19.9986 19.1248 19.7384 19.7529C19.4783 20.381 19.0377 20.9179 18.4724 21.2956C17.9071 21.6733 17.2425 21.8749 16.5626 21.8749C15.6512 21.8739 14.7775 21.5114 14.1331 20.867C13.4886 20.2226 13.1261 19.3488 13.1251 18.4374ZM29.5423 26.1484C29.4035 26.2389 29.2344 26.2706 29.0722 26.2365C28.91 26.2023 28.768 26.1052 28.6774 25.9664C28.1106 25.093 27.3342 24.3755 26.4189 23.8791C25.5037 23.3828 24.4788 23.1236 23.4376 23.1249C23.2718 23.1249 23.1129 23.0591 22.9957 22.9419C22.8784 22.8247 22.8126 22.6657 22.8126 22.4999C22.8126 22.3342 22.8784 22.1752 22.9957 22.058C23.1129 21.9408 23.2718 21.8749 23.4376 21.8749C23.9438 21.8745 24.4437 21.7622 24.9015 21.5461C25.3593 21.3301 25.7637 21.0156 26.0859 20.6251C26.4081 20.2346 26.64 19.7778 26.7652 19.2873C26.8903 18.7968 26.9056 18.2847 26.8099 17.7876C26.7142 17.2905 26.5098 16.8206 26.2115 16.4117C25.9132 16.0027 25.5282 15.6646 25.0841 15.4217C24.64 15.1787 24.1477 15.0369 23.6424 15.0063C23.1371 14.9756 22.6313 15.057 22.161 15.2445C22.0844 15.2776 22.0018 15.2951 21.9183 15.2958C21.8348 15.2965 21.752 15.2804 21.6748 15.2486C21.5976 15.2167 21.5275 15.1698 21.4688 15.1104C21.41 15.051 21.3638 14.9805 21.3327 14.9029C21.3017 14.8254 21.2866 14.7424 21.2882 14.6589C21.2897 14.5754 21.3081 14.493 21.342 14.4167C21.376 14.3404 21.4249 14.2717 21.4858 14.2146C21.5468 14.1575 21.6186 14.1132 21.697 14.0843C22.7731 13.6551 23.9701 13.6397 25.0569 14.041C26.1438 14.4422 27.0435 15.2318 27.5826 16.2573C28.1217 17.2828 28.2619 18.4716 27.9761 19.5944C27.6904 20.7172 26.999 21.6944 26.0353 22.3374C27.5505 22.8959 28.8446 23.9293 29.7243 25.2835C29.8148 25.4224 29.8465 25.5915 29.8124 25.7537C29.7783 25.9158 29.6811 26.0578 29.5423 26.1484Z" fill="#5897DA"/>
</svg>
