<svg width="111" height="32" viewBox="0 0 111 32" fill="none" xmlns="http://www.w3.org/2000/svg">
<path d="M43.8824 5.88572H29.576V9.52504H40.5811C39.9485 10.1315 39.1644 10.9174 38.201 11.8271C37.2104 12.7234 36.1924 13.6883 35.092 14.681C34.0189 15.7011 32.9463 16.6665 31.9278 17.5623C31.3776 18.0584 30.8547 18.5272 30.3869 18.9547C30.1803 19.1341 30.0016 19.2718 29.8367 19.4786C29.4653 19.8922 29.2587 20.4435 29.2587 21.0226C29.2587 22.3325 30.3318 23.4078 31.6388 23.4078H45.7117V19.9201H34.3352C34.9405 19.424 35.6973 18.7623 36.605 17.9073C37.4994 17.094 38.4622 16.2256 39.4802 15.288C40.4982 14.3917 41.4471 13.482 42.3554 12.6409C43.2497 11.7998 44.006 11.0696 44.584 10.4904C45.1615 9.9113 45.5469 9.44253 45.7808 9.07019C45.9874 8.65659 46.0698 8.25692 46.0698 7.81548C46.0698 7.18117 45.891 6.68506 45.4917 6.35398C45.0791 6.03682 44.5701 5.88521 43.8963 5.88521L43.8824 5.88572ZM75.5088 5.76247C73.0602 5.76247 71.203 6.41019 69.9099 7.69275C68.6168 8.98871 67.9842 10.9463 67.9842 13.5929V23.381H71.3817V13.7858C71.3817 12.7518 71.5332 11.8555 71.8217 11.1113C72.1241 10.3672 72.5785 9.78805 73.1972 9.38786C73.8164 8.98819 74.6005 8.79532 75.5356 8.79532C76.4706 8.79532 77.3237 9.00212 77.9291 9.40179C78.5344 9.81538 78.9743 10.3945 79.2494 11.1387C79.5245 11.8834 79.6621 12.7652 79.6621 13.7858V23.381H83.0596V13.5929C83.0596 10.9045 82.3992 8.9196 81.0927 7.65097C79.7857 6.38286 77.9151 5.74854 75.4938 5.74854L75.5077 5.76247H75.5088ZM87.655 23.3944V0H91.0531V23.3949L87.655 23.3944ZM102.911 31.2671C101.563 31.2671 100.27 31.0881 99.0181 30.7158C97.7663 30.3435 96.6246 29.7231 95.5788 28.8134L96.927 26.0977C97.725 26.732 98.5916 27.242 99.5544 27.6144C100.517 27.9867 101.535 28.1796 102.608 28.1796C104.397 28.1796 105.676 27.6969 106.474 26.7181C107.272 25.7393 107.657 24.4846 107.657 22.9132V21.2315C107.258 21.7828 106.776 22.2376 106.185 22.61C105.593 22.9823 104.96 23.2443 104.259 23.4093C103.557 23.5749 102.842 23.6574 102.113 23.6574C100.421 23.6574 99.0733 23.3129 98.0687 22.6095C97.0646 21.92 96.349 20.9551 95.923 19.7422C95.4964 18.5292 95.2764 17.1229 95.2764 15.5376V5.94245H98.7152V14.7104C98.7152 15.4133 98.7564 16.1168 98.8528 16.8336C98.9352 17.5365 99.1279 18.1708 99.4169 18.736C99.7059 19.3012 100.119 19.7561 100.669 20.0872C101.219 20.4316 101.962 20.5972 102.911 20.5972C104.094 20.5972 105.029 20.3079 105.717 19.7148C106.406 19.1218 106.887 18.3637 107.176 17.3988C107.464 16.4339 107.602 15.3999 107.602 14.2695V5.92904H111V22.5409C111 23.9054 110.835 25.1328 110.518 26.208C110.201 27.2833 109.707 28.2069 109.032 28.9516C108.358 29.6963 107.52 30.2749 106.529 30.6611C105.525 31.0474 104.329 31.2403 102.911 31.2403V31.2671ZM55.0111 16.6118C58.3674 16.6118 60.8578 16.157 62.3982 15.2885C63.9663 14.4201 64.7504 13.0968 64.7504 11.3594C64.7504 9.62199 64.0761 8.24403 62.7418 7.26523C61.4214 6.25909 59.6605 5.74854 57.5416 5.74854C55.7535 5.74854 54.1853 6.14821 52.8093 6.92022C51.4338 7.67831 50.3467 8.74014 49.5626 10.1186C48.7785 11.4698 48.3932 13.0411 48.3932 14.8058C48.3932 16.5706 48.7785 18.0867 49.5348 19.4106C50.2916 20.7339 51.3508 21.7405 52.699 22.4986C54.0745 23.2293 55.6427 23.5878 57.4036 23.5878C58.215 23.5878 59.0269 23.5326 59.8934 23.3949C60.7326 23.2293 61.5167 23.0365 62.2735 22.7472C63.0024 22.4991 63.6217 22.1819 64.1168 21.8787L62.6861 19.1903C61.3379 19.9763 59.811 20.362 58.1191 20.362C56.5783 20.362 55.2991 20.0309 54.2811 19.328C53.2492 18.6251 52.6578 17.7015 52.4929 16.5293C52.9468 16.5572 53.3873 16.5845 53.8411 16.5845C54.3223 16.6124 54.6809 16.6118 55.0111 16.6118ZM57.4324 8.72622C58.4916 8.72622 59.3308 8.94694 60.0047 9.42912C60.6785 9.88397 60.9814 10.4904 60.9814 11.2764C60.9814 13.0411 59.0557 13.9369 55.1899 13.9369H53.5114C53.0988 13.9369 52.6722 13.9369 52.3147 13.909C52.342 12.365 52.851 11.1103 53.8005 10.1454C54.7499 9.19396 55.9601 8.71178 57.4324 8.71178V8.72622ZM22.3404 4.28807C22.3404 4.63256 22.2719 4.96364 22.1478 5.26688C22.0102 5.55619 21.8454 5.81816 21.6249 6.03888C21.611 6.05281 21.597 6.05281 21.597 6.06622L5.9013 22.1819H13.6871C14.1137 22.1819 14.6087 22.168 14.9941 22.0025C15.8055 21.7405 16.1635 20.9685 16.0121 20.1413C15.8745 19.4384 15.5304 18.8866 15.0904 18.3492C15.0353 18.2801 14.2651 17.3844 14.3202 17.3292C14.3341 17.3153 17.1954 14.2411 17.1954 14.2411L17.8559 15.1508C18.5024 16.0745 19.135 16.9708 19.6167 18.0182C20.442 19.8242 20.8825 22.1675 19.9191 24.0287C19.6992 24.4283 19.5065 24.7182 19.2726 24.9523C19.2453 24.9802 19.2036 25.0075 19.0799 25.1039C18.3097 25.7795 17.2093 26.1101 15.7648 26.1101L2.53104 25.9997C1.12771 25.9997 0 24.8554 0 23.463C0 22.7874 0.261192 22.1943 0.687755 21.7395C0.715059 21.6982 0.756788 21.657 0.798002 21.6291L16.2877 5.70626H8.50188C8.10314 5.70626 7.60755 5.73359 7.16759 5.89913C6.53496 6.11985 6.19082 6.54685 6.1357 7.18117C6.12179 7.45707 6.1357 7.71905 6.19082 7.87066C6.28716 8.13264 6.35568 8.39462 6.46592 8.62875C6.60348 8.8768 6.74103 9.09752 6.89249 9.31824C7.1815 9.75917 7.49781 10.1594 7.78682 10.6003L7.86925 10.7658L4.99408 13.6471L4.82922 13.4124C4.69167 13.2469 4.55412 13.054 4.34754 12.7647C4.20999 12.5718 4.08634 12.4063 3.99001 12.2547L3.9627 12.2134C3.89367 12.117 3.85246 12.0345 3.79785 11.9653C3.22034 11.166 2.82108 10.4904 2.53207 9.80094C1.59652 7.82941 1.48679 5.49946 2.25697 3.88686C2.46355 3.52844 2.66962 3.22521 2.90351 2.99056C2.95863 2.92146 3.04106 2.8802 3.12349 2.79769C3.86637 2.13604 4.93947 1.81889 6.42523 1.81889L19.8377 1.79155H19.8789C20.8969 1.79155 21.7913 2.42587 22.1761 3.30824C22.2863 3.59755 22.3688 3.9147 22.3688 4.27312L22.341 4.28704L22.3404 4.28807Z" fill="#5897DA"/>
</svg>
