<svg width="16" height="16" viewBox="0 0 16 16" fill="none" xmlns="http://www.w3.org/2000/svg">
<path d="M13.1175 4.86441C12.4463 4.19165 11.6485 3.65845 10.7702 3.29556C9.89182 2.93266 8.95034 2.74726 8 2.75003H7.97437C3.99062 2.76378 0.75 6.04753 0.75 10.0707V11.5C0.75 11.8316 0.881696 12.1495 1.11612 12.3839C1.35054 12.6183 1.66848 12.75 2 12.75H14C14.3315 12.75 14.6495 12.6183 14.8839 12.3839C15.1183 12.1495 15.25 11.8316 15.25 11.5V10C15.2526 9.0454 15.0654 8.09978 14.6993 7.21814C14.3332 6.33649 13.7955 5.53641 13.1175 4.86441ZM13.75 11.25H7.9575L10.86 7.18753C10.9175 7.10742 10.9586 7.01679 10.981 6.92079C11.0034 6.8248 11.0067 6.72532 10.9907 6.62805C10.9747 6.53079 10.9397 6.43762 10.8876 6.35389C10.8356 6.27015 10.7676 6.19748 10.6875 6.14003C10.6074 6.08258 10.5168 6.04146 10.4208 6.01904C10.3248 5.99662 10.2253 5.99332 10.128 6.00934C10.0308 6.02535 9.93759 6.06037 9.85386 6.1124C9.77012 6.16442 9.69745 6.23242 9.64 6.31253L6.11375 11.25H2.25V10.0707C2.25 9.96316 2.25 9.85628 2.25875 9.75003H3.5C3.69891 9.75003 3.88968 9.67101 4.03033 9.53036C4.17098 9.38971 4.25 9.19894 4.25 9.00003C4.25 8.80112 4.17098 8.61035 4.03033 8.4697C3.88968 8.32905 3.69891 8.25003 3.5 8.25003H2.53875C3.22062 6.16316 5.03875 4.59253 7.25 4.29941V5.50003C7.25 5.69894 7.32902 5.88971 7.46967 6.03036C7.61032 6.17101 7.80109 6.25003 8 6.25003C8.19891 6.25003 8.38968 6.17101 8.53033 6.03036C8.67098 5.88971 8.75 5.69894 8.75 5.50003V4.30003C9.83174 4.44198 10.8508 4.88876 11.6881 5.58819C12.5254 6.28762 13.1465 7.21084 13.4788 8.25003H12.5C12.3011 8.25003 12.1103 8.32905 11.9697 8.4697C11.829 8.61035 11.75 8.80112 11.75 9.00003C11.75 9.19894 11.829 9.38971 11.9697 9.53036C12.1103 9.67101 12.3011 9.75003 12.5 9.75003H13.7437C13.7475 9.83316 13.75 9.91628 13.75 10V11.25Z" fill="#F9FAFB"/>
</svg>
