<svg width="40" height="40" viewBox="0 0 40 40" fill="none" xmlns="http://www.w3.org/2000/svg">
<rect x="0.5" y="0.5" width="39" height="39" rx="19.5" stroke="#E4E7EC"/>
<path opacity="0.2" d="M20.625 18.4375C20.625 19.241 20.3867 20.0264 19.9403 20.6945C19.494 21.3626 18.8595 21.8833 18.1172 22.1908C17.3748 22.4982 16.558 22.5787 15.7699 22.4219C14.9819 22.2652 14.258 21.8783 13.6899 21.3101C13.1217 20.742 12.7348 20.0181 12.5781 19.2301C12.4213 18.442 12.5018 17.6252 12.8092 16.8828C13.1167 16.1405 13.6374 15.506 14.3055 15.0597C14.9736 14.6133 15.759 14.375 16.5625 14.375C17.6399 14.375 18.6733 14.803 19.4351 15.5649C20.197 16.3267 20.625 17.3601 20.625 18.4375Z" fill="#667185"/>
<path d="M19.1601 22.3374C19.9978 21.7798 20.6338 20.9674 20.974 20.0203C21.3142 19.0732 21.3406 18.0418 21.0493 17.0786C20.758 16.1154 20.1644 15.2715 19.3564 14.6717C18.5484 14.0719 17.5688 13.748 16.5625 13.748C15.5562 13.748 14.5766 14.0719 13.7685 14.6717C12.9605 15.2715 12.367 16.1154 12.0757 17.0786C11.7844 18.0418 11.8108 19.0732 12.151 20.0203C12.4912 20.9674 13.1272 21.7798 13.9648 22.3374C12.4496 22.8959 11.1555 23.9293 10.2758 25.2835C10.2295 25.3523 10.1974 25.4295 10.1813 25.5107C10.1651 25.592 10.1653 25.6756 10.1818 25.7568C10.1983 25.838 10.2307 25.915 10.2773 25.9836C10.3238 26.0521 10.3835 26.1107 10.4529 26.1559C10.5222 26.2012 10.5999 26.2322 10.6814 26.2472C10.7629 26.2621 10.8465 26.2607 10.9274 26.2431C11.0083 26.2255 11.085 26.1919 11.1528 26.1444C11.2207 26.0969 11.2784 26.0364 11.3226 25.9664C11.8901 25.0935 12.6667 24.3763 13.5817 23.8798C14.4968 23.3833 15.5214 23.1232 16.5625 23.1232C17.6036 23.1232 18.6282 23.3833 19.5432 23.8798C20.4583 24.3763 21.2348 25.0935 21.8023 25.9664C21.894 26.1026 22.0356 26.1973 22.1965 26.23C22.3575 26.2626 22.5248 26.2307 22.6623 26.141C22.7999 26.0512 22.8966 25.911 22.9315 25.7506C22.9665 25.5901 22.9369 25.4224 22.8492 25.2835C21.9694 23.9293 20.6754 22.8959 19.1601 22.3374ZM13.125 18.4374C13.125 17.7576 13.3266 17.093 13.7043 16.5277C14.082 15.9624 14.6189 15.5218 15.247 15.2616C15.8751 15.0014 16.5663 14.9334 17.2331 15.066C17.8999 15.1986 18.5124 15.526 18.9932 16.0068C19.4739 16.4875 19.8013 17.1 19.9339 17.7668C20.0666 18.4336 19.9985 19.1248 19.7383 19.7529C19.4781 20.381 19.0375 20.9179 18.4723 21.2956C17.907 21.6733 17.2424 21.8749 16.5625 21.8749C15.6511 21.8739 14.7774 21.5114 14.1329 20.867C13.4885 20.2226 13.126 19.3488 13.125 18.4374ZM29.5422 26.1484C29.4033 26.2389 29.2342 26.2706 29.0721 26.2365C28.9099 26.2023 28.7679 26.1052 28.6773 25.9664C28.1105 25.093 27.3341 24.3755 26.4188 23.8791C25.5036 23.3828 24.4786 23.1236 23.4375 23.1249C23.2717 23.1249 23.1127 23.0591 22.9955 22.9419C22.8783 22.8247 22.8125 22.6657 22.8125 22.4999C22.8125 22.3342 22.8783 22.1752 22.9955 22.058C23.1127 21.9408 23.2717 21.8749 23.4375 21.8749C23.9437 21.8745 24.4436 21.7622 24.9014 21.5461C25.3592 21.3301 25.7636 21.0156 26.0858 20.6251C26.4079 20.2346 26.6399 19.7778 26.765 19.2873C26.8902 18.7968 26.9055 18.2847 26.8097 17.7876C26.714 17.2905 26.5097 16.8206 26.2114 16.4117C25.9131 16.0027 25.5281 15.6646 25.084 15.4217C24.6399 15.1787 24.1476 15.0369 23.6423 15.0063C23.137 14.9756 22.6311 15.057 22.1609 15.2445C22.0843 15.2776 22.0017 15.2951 21.9182 15.2958C21.8347 15.2965 21.7519 15.2804 21.6746 15.2486C21.5974 15.2167 21.5274 15.1698 21.4686 15.1104C21.4099 15.051 21.3636 14.9805 21.3326 14.9029C21.3016 14.8254 21.2864 14.7424 21.288 14.6589C21.2896 14.5754 21.3079 14.493 21.3419 14.4167C21.3758 14.3404 21.4248 14.2717 21.4857 14.2146C21.5467 14.1575 21.6185 14.1132 21.6969 14.0843C22.773 13.6551 23.9699 13.6397 25.0568 14.041C26.1437 14.4422 27.0434 15.2318 27.5825 16.2573C28.1215 17.2828 28.2617 18.4716 27.976 19.5944C27.6903 20.7172 26.9988 21.6944 26.0351 22.3374C27.5504 22.8959 28.8444 23.9293 29.7242 25.2835C29.8147 25.4224 29.8464 25.5915 29.8123 25.7537C29.7781 25.9158 29.681 26.0578 29.5422 26.1484Z" fill="#667185"/>
</svg>
