<svg width="40" height="40" viewBox="0 0 40 40" fill="none" xmlns="http://www.w3.org/2000/svg">
<rect width="40" height="40" rx="20" fill="#F0F2F5"/>
<path d="M27.8125 20C27.8125 20.2486 27.7137 20.4871 27.5379 20.6629C27.3621 20.8387 27.1236 20.9375 26.875 20.9375H13.125C12.8764 20.9375 12.6379 20.8387 12.4621 20.6629C12.2863 20.4871 12.1875 20.2486 12.1875 20C12.1875 19.7514 12.2863 19.5129 12.4621 19.3371C12.6379 19.1613 12.8764 19.0625 13.125 19.0625H26.875C27.1236 19.0625 27.3621 19.1613 27.5379 19.3371C27.7137 19.5129 27.8125 19.7514 27.8125 20ZM13.125 15.9375H26.875C27.1236 15.9375 27.3621 15.8387 27.5379 15.6629C27.7137 15.4871 27.8125 15.2486 27.8125 15C27.8125 14.7514 27.7137 14.5129 27.5379 14.3371C27.3621 14.1613 27.1236 14.0625 26.875 14.0625H13.125C12.8764 14.0625 12.6379 14.1613 12.4621 14.3371C12.2863 14.5129 12.1875 14.7514 12.1875 15C12.1875 15.2486 12.2863 15.4871 12.4621 15.6629C12.6379 15.8387 12.8764 15.9375 13.125 15.9375ZM26.875 24.0625H13.125C12.8764 24.0625 12.6379 24.1613 12.4621 24.3371C12.2863 24.5129 12.1875 24.7514 12.1875 25C12.1875 25.2486 12.2863 25.4871 12.4621 25.6629C12.6379 25.8387 12.8764 25.9375 13.125 25.9375H26.875C27.1236 25.9375 27.3621 25.8387 27.5379 25.6629C27.7137 25.4871 27.8125 25.2486 27.8125 25C27.8125 24.7514 27.7137 24.5129 27.5379 24.3371C27.3621 24.1613 27.1236 24.0625 26.875 24.0625Z" fill="#667185"/>
</svg>
