<svg width="16" height="16" viewBox="0 0 16 16" fill="none" xmlns="http://www.w3.org/2000/svg">
<path d="M7.82348 9.80858C8.45164 9.28058 8.90221 8.57216 9.11409 7.7794C9.32597 6.98664 9.28891 6.14789 9.00792 5.37691C8.72694 4.60592 8.21563 3.94002 7.54334 3.46949C6.87106 2.99896 6.07032 2.74658 5.24973 2.74658C4.42914 2.74658 3.62841 2.99896 2.95612 3.46949C2.28383 3.94002 1.77253 4.60592 1.49154 5.37691C1.21056 6.14789 1.17349 6.98664 1.38537 7.7794C1.59725 8.57216 2.04782 9.28058 2.67598 9.80858C1.69509 10.2521 0.845054 10.9409 0.207856 11.8086C0.0901665 11.9689 0.0410049 12.1695 0.0711866 12.3661C0.101368 12.5627 0.208421 12.7393 0.368794 12.857C0.529167 12.9747 0.729724 13.0239 0.926344 12.9937C1.12296 12.9635 1.29954 12.8564 1.41723 12.6961C1.85832 12.0937 2.43521 11.6037 3.10109 11.266C3.76697 10.9282 4.50309 10.7522 5.24973 10.7522C5.99637 10.7522 6.73249 10.9282 7.39837 11.266C8.06426 11.6037 8.64114 12.0937 9.08223 12.6961C9.19992 12.8565 9.37653 12.9637 9.57321 12.9939C9.76989 13.0241 9.97053 12.975 10.131 12.8573C10.2914 12.7396 10.3986 12.563 10.4288 12.3663C10.459 12.1697 10.4099 11.969 10.2922 11.8086C9.65465 10.941 8.80445 10.2523 7.82348 9.80858ZM2.74973 6.74983C2.74973 6.25537 2.89635 5.77202 3.17106 5.3609C3.44576 4.94978 3.83621 4.62935 4.29302 4.44013C4.74984 4.25091 5.2525 4.2014 5.73746 4.29786C6.22241 4.39433 6.66787 4.63243 7.0175 4.98206C7.36713 5.33169 7.60523 5.77715 7.70169 6.2621C7.79816 6.74705 7.74865 7.24972 7.55943 7.70654C7.37021 8.16335 7.04978 8.5538 6.63866 8.8285C6.22753 9.1032 5.74418 9.24983 5.24973 9.24983C4.58669 9.24983 3.95081 8.98643 3.48196 8.51759C3.01312 8.04875 2.74973 7.41287 2.74973 6.74983ZM15.631 12.8542C15.5516 12.9125 15.4615 12.9547 15.3658 12.9782C15.2701 13.0017 15.1707 13.0061 15.0733 12.9912C14.9759 12.9763 14.8824 12.9423 14.7982 12.8912C14.7139 12.8402 14.6405 12.773 14.5822 12.6936C14.1401 12.0923 13.5629 11.6032 12.8973 11.2656C12.2317 10.928 11.4961 10.7514 10.7497 10.7498C10.5508 10.7498 10.3601 10.6708 10.2194 10.5302C10.0787 10.3895 9.99973 10.1987 9.99973 9.99983C9.99973 9.80091 10.0787 9.61015 10.2194 9.4695C10.3601 9.32884 10.5508 9.24983 10.7497 9.24983C11.1178 9.2494 11.4813 9.16768 11.8142 9.01052C12.147 8.85336 12.4411 8.62464 12.6753 8.34068C12.9096 8.05672 13.0782 7.72455 13.1692 7.36787C13.2602 7.01119 13.2713 6.63882 13.2017 6.27736C13.1322 5.91589 12.9837 5.57424 12.7668 5.27682C12.5499 4.9794 12.27 4.73354 11.9471 4.55681C11.6242 4.38008 11.2662 4.27684 10.8988 4.25445C10.5314 4.23207 10.1636 4.2911 9.82161 4.42733C9.73 4.46483 9.63188 4.48384 9.5329 4.48324C9.43391 4.48265 9.33603 4.46246 9.24488 4.42385C9.15374 4.38525 9.07114 4.32898 9.00184 4.25829C8.93255 4.18761 8.87793 4.10391 8.84114 4.01201C8.80435 3.92012 8.78612 3.82185 8.78749 3.72288C8.78885 3.6239 8.8098 3.52618 8.84912 3.43534C8.88844 3.3445 8.94535 3.26234 9.01658 3.1936C9.0878 3.12486 9.17193 3.0709 9.26411 3.03483C10.1468 2.68142 11.1265 2.654 12.0276 2.95748C12.9287 3.26097 13.6922 3.87551 14.1812 4.69092C14.6703 5.50633 14.8528 6.46928 14.6962 7.40711C14.5396 8.34494 14.0541 9.19631 13.3266 9.80858C14.3075 10.2521 15.1575 10.9409 15.7947 11.8086C15.9113 11.9691 15.9594 12.1692 15.9288 12.3652C15.8981 12.5612 15.791 12.737 15.631 12.8542Z" fill="#F9FAFB"/>
</svg>
